<?xml version="1.0" standalone="no"?>
<!DOCTYPE svg PUBLIC "-//W3C//DTD SVG 20010904//EN"
 "http://www.w3.org/TR/2001/REC-SVG-20010904/DTD/svg10.dtd">
<svg version="1.0" xmlns="http://www.w3.org/2000/svg"
 width="700.000000pt" height="700.000000pt" viewBox="0 0 700.000000 700.000000"
 preserveAspectRatio="xMidYMid meet">
<metadata>
Created by potrace 1.11, written by Peter Selinger 2001-2013
</metadata>
<g transform="translate(0.000000,700.000000) scale(0.100000,-0.100000)"
fill="#000000" stroke="none">
<path d="M2600 6859 c-99 -27 -319 -102 -395 -134 -180 -77 -361 -167 -416
-206 l-26 -18 1 -523 1 -523 -100 -105 c-55 -58 -116 -124 -136 -145 -69 -77
-211 -271 -255 -350 -108 -191 -135 -246 -196 -399 -43 -109 -98 -293 -119
-398 -7 -38 -15 -68 -18 -68 -3 0 -6 414 -6 920 0 506 -2 920 -5 919 -14 -1
-209 -251 -296 -379 -109 -160 -246 -413 -314 -580 -12 -30 -28 -68 -35 -85
-82 -188 -187 -593 -211 -810 -3 -27 -7 -55 -9 -62 -18 -56 -27 -525 -13 -693
20 -230 52 -410 115 -639 85 -310 212 -607 369 -867 49 -82 192 -295 204 -304
3 -3 27 -32 52 -65 25 -33 68 -84 94 -113 l49 -54 -1 931 c0 512 3 928 7 924
4 -5 10 -21 13 -38 12 -66 19 -94 48 -195 88 -314 236 -611 431 -869 94 -123
122 -156 242 -276 l90 -90 -1 -520 c0 -286 3 -528 8 -537 5 -10 84 -55 176
-101 202 -100 276 -131 442 -187 72 -24 256 -80 262 -80 3 0 6 198 6 441 0
242 3 443 6 446 3 4 37 -3 74 -15 63 -21 164 -48 214 -58 220 -43 334 -56 516
-56 115 0 272 8 340 17 15 2 50 6 77 10 81 11 274 54 361 80 45 14 87 25 93
25 8 0 11 -127 11 -446 0 -413 1 -446 17 -440 9 4 36 11 61 17 78 17 284 89
407 141 116 49 381 181 398 198 5 4 9 246 9 536 l0 529 98 100 c135 138 300
338 300 364 0 5 4 11 8 13 9 3 64 88 116 178 122 211 246 540 287 769 12 66
15 -33 19 -865 l5 -939 88 105 c461 550 740 1250 792 1990 11 154 5 503 -10
579 -2 9 -6 45 -10 81 -3 36 -8 72 -10 80 -2 8 -7 35 -10 60 -25 179 -106 474
-192 694 -66 170 -184 409 -271 546 -108 170 -166 251 -266 373 -44 55 -89
109 -98 121 -17 20 -18 -27 -19 -924 -1 -520 -4 -934 -6 -920 -21 126 -121
470 -144 494 -5 6 -9 17 -9 24 0 32 -153 323 -228 437 -105 157 -192 264 -329
405 l-111 115 -1 490 c0 270 0 509 0 532 l-1 42 -192 95 c-243 119 -392 177
-611 239 l-87 25 -1 -37 c0 -20 -1 -221 -1 -447 l-1 -412 -66 19 c-80 24 -179
50 -206 55 -11 2 -31 6 -45 9 -169 38 -304 50 -530 50 -287 -1 -497 -30 -757
-107 -54 -16 -83 -21 -86 -14 -2 6 -3 208 -2 449 0 292 -3 437 -10 436 -5 0
-26 -5 -45 -10z m25 -1394 c0 -431 -1 -450 -19 -467 -11 -10 -24 -18 -29 -18
-22 0 -231 -169 -313 -253 -159 -164 -266 -322 -356 -527 -44 -98 -97 -263
-101 -309 -1 -11 -3 -18 -6 -16 -2 3 -4 352 -4 776 l0 771 39 37 c21 20 64 55
94 79 30 23 60 45 65 50 128 101 580 341 620 328 6 -2 10 -161 10 -451z m1842
424 c227 -90 508 -260 690 -417 l53 -46 -1 -770 c0 -424 -4 -762 -8 -751 -5
11 -27 79 -50 150 -42 131 -49 146 -111 265 -141 269 -399 544 -635 676 -19
11 -20 25 -23 468 -1 251 0 456 3 456 2 0 39 -14 82 -31z m-767 -684 c75 -9
193 -32 260 -51 158 -45 379 -146 381 -173 2 -22 4 -941 3 -941 -1 0 -21 26
-45 58 -136 181 -332 314 -555 373 -168 45 -423 32 -589 -30 -174 -65 -336
-184 -442 -325 -26 -34 -49 -65 -53 -69 -4 -5 -7 206 -8 468 l0 476 112 54
c132 64 294 119 414 141 12 2 34 6 50 9 15 3 61 8 102 11 41 4 76 8 78 9 5 4
239 -3 292 -10z m-2757 -1240 c-3 -9 -8 -14 -10 -11 -3 3 -2 9 2 15 9 16 15
13 8 -4z m4264 -837 c-3 -8 -6 -5 -6 6 -1 11 2 17 5 13 3 -3 4 -12 1 -19z
m-3347 -193 c127 -360 374 -678 685 -881 l80 -52 -1 -449 c-1 -246 -2 -451 -3
-455 -3 -18 -310 126 -445 210 -86 53 -272 187 -345 250 l-34 29 1 769 c0 423
1 774 2 779 1 6 8 -17 15 -50 8 -33 28 -100 45 -150z m3350 -582 c0 -417 -4
-762 -8 -768 -25 -35 -237 -193 -363 -272 -106 -66 -305 -164 -436 -214 l-23
-9 0 458 0 457 40 23 c121 69 319 244 439 387 114 137 246 385 301 565 17 58
33 111 36 118 2 6 6 12 8 12 3 0 6 -341 6 -757z m-4265 707 c3 -5 1 -10 -4
-10 -6 0 -11 5 -11 10 0 6 2 10 4 10 3 0 8 -4 11 -10z m3405 -560 l0 -480
-103 -50 c-243 -117 -472 -171 -732 -171 -268 0 -508 54 -742 167 l-112 54 -1
475 c0 261 3 475 5 475 3 0 13 -13 23 -28 29 -49 122 -148 187 -201 303 -246
717 -293 1070 -120 135 66 283 191 362 306 20 29 38 53 40 53 1 0 3 -216 3
-480z"/>
</g>
</svg>
